<?xml version="1.0" standalone="no"?>
<!DOCTYPE svg PUBLIC "-//W3C//DTD SVG 20010904//EN"
 "http://www.w3.org/TR/2001/REC-SVG-20010904/DTD/svg10.dtd">
<svg version="1.0" xmlns="http://www.w3.org/2000/svg"
 width="108.000000pt" height="108.000000pt" viewBox="0 0 108.000000 108.000000"
 preserveAspectRatio="xMidYMid meet">
<metadata>
Created by potrace 1.11, written by Peter Selinger 2001-2013
</metadata>
<g transform="translate(0.000000,108.000000) scale(0.100000,-0.100000)"
fill="#000000" stroke="none">
<path d="M840 998 c-19 -5 -71 -27 -115 -47 -44 -21 -98 -44 -120 -51 -63 -19
-164 -70 -230 -115 -81 -55 -147 -84 -203 -91 -76 -9 -136 -55 -153 -118 -17
-63 -18 -127 -2 -166 10 -24 13 -52 8 -92 -5 -49 -3 -60 15 -78 11 -11 26 -20
32 -20 7 0 26 -11 42 -24 28 -22 29 -25 17 -54 -14 -33 -7 -72 12 -73 7 0 21
-2 32 -5 40 -8 180 42 197 70 4 7 71 41 150 76 79 35 157 72 173 82 75 45 145
71 232 89 52 10 102 23 113 29 35 19 46 94 18 122 -13 13 -16 26 -12 44 5 18
1 30 -15 45 -24 23 -24 23 -11 68 11 39 -2 71 -29 71 -10 0 -23 13 -32 32 -10
23 -24 35 -46 40 -40 10 -41 23 -8 88 34 67 33 90 -2 89 -16 0 -44 -5 -63 -11z"/>
</g>
</svg>
